<?xml version="1.0" encoding="utf-8"?>
<!-- Generator: Adobe Illustrator 27.5.0, SVG Export Plug-In . SVG Version: 6.00 Build 0)  -->
<svg version="1.1" xmlns="http://www.w3.org/2000/svg" xmlns:xlink="http://www.w3.org/1999/xlink" x="0px" y="0px"
	 viewBox="0 0 750 500" style="enable-background:new 0 0 750 500;" xml:space="preserve">
<g id="BACKGROUND">
</g>
<g id="OBJECTS">
	<g>
		
			<ellipse transform="matrix(0.1249 -0.9922 0.9922 0.1249 108.2186 950.3948)" style="fill:#EDDFE0;" cx="592.893" cy="413.848" rx="26.276" ry="71.883"/>
		<g>
			<g>
				<g>
					<path style="fill:#965450;" d="M611.513,406.333c0,0,6.485,28.113,13.461,27.041c5.152-0.792,0.417-29.207,0.417-29.207
						L611.513,406.333z"/>
					<path style="fill:#965450;" d="M562.833,387.153c0,0-27.007,37.021,9.465,6.026L562.833,387.153z"/>
				</g>
				<g>
					<path style="fill:#6F96BD;" d="M543.051,291.341c0,0,4.138,60.691,18.312,96.861c0,0,3.517,6.263,11.769,4.488l10.47-37.66
						l7.772,4.258l18.563,50.626c0,0,6.678,1.801,16.653-2.599l1.173-80.532L543.051,291.341z"/>
					<path style="fill:#567D9B;" d="M577.92,354.239c-10.183-5.347-19.912-11.654-27.89-20.026
						c-0.795-0.835-1.566-1.689-2.331-2.547c2.849,18.575,7.219,40.09,13.664,56.536c0,0,3.517,6.263,11.769,4.488l9.968-35.854
						C581.36,355.994,579.628,355.136,577.92,354.239z"/>
				</g>
			</g>
			<g>
				<path style="fill:#76413B;" d="M630.759,127.854c0,0-33-24.333-64.667,10.667c-31.667,35-8.333,51.93-29.333,80.132
					s8,58.205,39.667,48.703C608.092,257.854,630.759,127.854,630.759,127.854z"/>
				<g>
					<path style="fill:#F19C7C;" d="M542.927,315.473c0,0-30.392,16.589-7.807-3.891c0,0-41.85-21.108-5.376-9.148
						c0,0-28.741-26.405,3.792-5.469c0,0-17.063-31.944,7.978,2.007C566.554,332.921,542.927,315.473,542.927,315.473z"/>
					<g>
						<path style="fill:#765E69;" d="M566.945,222.054c0,0-26.317,4.736-29.361,17.481c-3.044,12.745-12.384,75.865,22.864,92.071
							c0,0,39.085,30.709,67.542,21.548c0,0,10.554-37.198,27.834-67.58c0,0-6.782-21.279-34.411-33.011
							S566.945,222.054,566.945,222.054z"/>
						<g>
							<path style="fill:#604D57;" d="M573.882,252.777c7.281,5.453,15.407,9.724,24.765,9.481
								c9.301-0.242,13.975-5.446,20.322-10.753c-26.745-11.768-52.024-29.451-52.024-29.451s-6.364,1.149-13.194,3.828
								C558.886,236.011,564.634,245.851,573.882,252.777z"/>
							<path style="fill:#604D57;" d="M584.694,322.355c-17.796-3.639-37.327-13.364-48.687-27.99
								c2.93,15.847,7.044,27.45,23.044,39.822c0,0,40.481,28.128,68.939,18.967c0,0,5.313-18.706,14.562-40.419
								C625.607,322.846,604.505,326.405,584.694,322.355z"/>
						</g>
					</g>
					<g>
						<path style="fill:#F19C7C;" d="M646.65,374.64l1.436,9.198c0,0-11.129,28.221,2.788,6.441c0,0,31.496,30.481,8.63,1.454
							c0,0,37.22,15.836,5.573-5.454c0,0,39.585,2.735,0.488-4.66c0,0,33.713-12.418-3.206-4.224l-0.612-18.609L646.65,374.64z"/>
						<path style="fill:#765E69;" d="M606.498,261.813l14.916-9.249c0,0,20.026-10.941,32.537,14.792
							c12.51,25.733,10.64,104.626,10.64,104.626s-10.213,9.145-20.847,9.546l-29.073-99.597L606.498,261.813z"/>
					</g>
				</g>
			</g>
			<g>
				<g>
					<path style="fill:#F19C7C;" d="M643.111,151.554c0,0-44.454-32.351-64.63,5.398c-19.308,36.125-27.233,82.569,15.162,95.952
						C633.049,265.343,679.655,191.96,643.111,151.554z"/>
					<g>
						<path style="fill:#965450;" d="M621.621,123.162c0,0-22.242,2.322-25.725,23.884c-3.483,21.562,20.732,41.797,43.621,44.119
							l-10.283-16.254c0,0,11.279,14.909,21.562,20.392c0,0-31.989,43.309-13.081,58.899s21.042-0.342,35.969,23.542
							c0,0,29.523-27.061,8.293-45.044c-21.23-17.983,9.288-39.623,1.99-72.385C679.571,140.575,654.81,121.172,621.621,123.162z"/>
						<path style="fill:#76413B;" d="M681.977,232.699c-19.244-20.094,9.288-39.623,1.99-72.385
							c-1.884-8.456-7.514-16.845-15.934-23.523c3.736,12.339,0.746,26.386-11.059,35.549c-6.161,4.782-13.296,8.299-20.809,10.717
							c4.104,4.411,9.491,9.504,14.629,12.243c0,0-48.082,53.295-29.174,68.886c18.908,15.591,28.43-19.513,40.692,38.392
							C662.313,302.579,709.718,261.666,681.977,232.699z"/>
					</g>
				</g>
				<g>
					<g>
						<g>
							<g>
								<path style="fill:#D86C5D;" d="M593.643,195.302c-0.064,0.414-0.158,0.825-0.263,1.23c-0.12,0.398-0.216,0.812-0.363,1.201
									c-0.273,0.79-0.573,1.576-0.946,2.328c-0.346,0.768-0.757,1.505-1.195,2.232l-0.701,1.067
									c-0.249,0.346-0.519,0.68-0.78,1.022c-0.25,0.35-0.561,0.655-0.851,0.978c-0.293,0.321-0.583,0.645-0.924,0.927
									c-0.333,0.289-0.648,0.595-0.999,0.868l-1.098,0.773c-0.363,0.261-0.792,0.445-1.189,0.663
									c-0.394,0.225-0.821,0.399-1.265,0.541c-0.444,0.136-0.861,0.334-1.332,0.391c-0.46,0.088-0.923,0.153-1.381,0.225
									l0.915-2.271c1.051,1.429,2.068,2.885,3.012,4.402c0.476,0.755,0.943,1.517,1.381,2.303c0.446,0.78,0.867,1.58,1.251,2.409
									c-0.737-0.542-1.437-1.113-2.112-1.706c-0.683-0.586-1.337-1.195-1.982-1.812c-1.298-1.227-2.523-2.513-3.714-3.828
									l-1.475-1.628l2.39-0.644c0.338-0.091,0.672-0.188,1.009-0.263c0.342-0.048,0.656-0.238,0.983-0.355l0.49-0.188
									c0.161-0.072,0.314-0.17,0.472-0.252c0.309-0.183,0.636-0.32,0.938-0.526l0.908-0.613c0.299-0.213,0.584-0.459,0.879-0.686
									c0.582-0.466,1.145-0.982,1.694-1.516c0.553-0.533,1.088-1.096,1.617-1.675c0.521-0.585,1.052-1.174,1.565-1.786
									c0.508-0.615,1.025-1.236,1.527-1.874L593.643,195.302z"/>
							</g>
							<g>
								<path style="fill:#76413B;" d="M594.037,188.738c0,0-0.358-0.416-0.946-1.107c-0.597-0.687-1.434-1.645-2.426-2.705
									c-0.507-0.521-1.039-1.081-1.627-1.617c-0.582-0.54-1.199-1.079-1.854-1.563c-0.323-0.253-0.666-0.467-0.996-0.704
									c-0.352-0.194-0.686-0.429-1.043-0.6c-0.702-0.381-1.431-0.666-2.176-0.873c-0.737-0.243-1.513-0.313-2.291-0.394
									c-0.399-0.005-0.796-0.01-1.187-0.016c-0.4,0.042-0.798,0.044-1.2,0.094c-0.401,0.062-0.798,0.104-1.196,0.175
									c-0.396,0.08-0.785,0.167-1.176,0.234c-0.763,0.215-1.522,0.368-2.21,0.605c-0.706,0.191-1.352,0.409-1.935,0.605
									c-0.59,0.182-1.121,0.339-1.545,0.497c-0.863,0.293-1.406,0.423-1.406,0.423s0.267-0.47,0.821-1.228
									c0.273-0.385,0.619-0.842,1.073-1.31c0.438-0.489,0.961-1.014,1.596-1.527c0.609-0.546,1.363-1.028,2.171-1.546
									c0.422-0.232,0.871-0.447,1.33-0.678c0.46-0.231,0.977-0.377,1.485-0.572c1.04-0.332,2.187-0.561,3.387-0.607
									c1.202-0.031,2.452,0.09,3.649,0.436c1.185,0.36,2.337,0.857,3.315,1.537c1,0.648,1.861,1.423,2.573,2.238
									c1.454,1.619,2.339,3.376,2.911,4.901c0.558,1.539,0.788,2.872,0.869,3.813C594.093,188.19,594.037,188.738,594.037,188.738
									z"/>
							</g>
							<g>
								<path style="fill:#76413B;" d="M605.527,191.731c0,0,0.334-0.604,1.085-1.533c0.746-0.934,1.916-2.191,3.562-3.463
									c1.653-1.247,3.785-2.547,6.42-3.326c1.307-0.4,2.74-0.672,4.238-0.696c0.745-0.04,1.509,0.018,2.271,0.092
									c0.754,0.14,1.53,0.229,2.267,0.478c1.503,0.412,2.884,1.146,4.142,1.958c1.219,0.864,2.299,1.845,3.178,2.892
									c0.903,1.035,1.596,2.134,2.21,3.179c0.556,1.076,1.058,2.09,1.39,3.072c0.38,0.962,0.623,1.873,0.817,2.682
									c0.218,0.799,0.328,1.517,0.405,2.109c0.168,1.178,0.203,1.857,0.203,1.857s-0.448-0.535-1.124-1.481
									c-0.325-0.479-0.75-1.041-1.236-1.671c-0.472-0.638-0.984-1.357-1.597-2.087c-0.564-0.764-1.251-1.511-1.932-2.308
									c-0.722-0.757-1.471-1.541-2.299-2.245c-0.393-0.384-0.854-0.666-1.274-1.016c-0.432-0.333-0.912-0.578-1.352-0.896
									c-0.954-0.483-1.899-1-2.935-1.247c-1.012-0.316-2.071-0.483-3.149-0.525c-0.535-0.044-1.081-0.001-1.622-0.005
									c-0.543,0.06-1.084,0.079-1.622,0.169c-1.077,0.138-2.133,0.383-3.142,0.649c-1.013,0.261-1.968,0.588-2.863,0.891
									c-1.778,0.638-3.286,1.266-4.353,1.722C606.141,191.459,605.527,191.731,605.527,191.731z"/>
							</g>
						</g>
						<g>
							<path style="fill:#D86C5D;" d="M578.481,220.529c0,0,0.126,0.078,0.361,0.224c0.226,0.151,0.587,0.339,1.017,0.601
								c0.447,0.243,0.977,0.546,1.6,0.863c0.615,0.328,1.327,0.66,2.094,1.024c0.377,0.192,0.79,0.357,1.213,0.529
								c0.426,0.167,0.841,0.385,1.294,0.553c0.91,0.33,1.847,0.712,2.852,1.014c0.502,0.151,0.996,0.343,1.513,0.489
								c0.519,0.14,1.043,0.281,1.573,0.424l0.793,0.22l0.812,0.168l1.627,0.353c1.091,0.21,2.198,0.338,3.278,0.539
								c1.094,0.088,2.17,0.204,3.216,0.323c1.049,0.029,2.068,0.091,3.041,0.147c0.487,0.048,0.958,0.007,1.417,0.009
								c0.461,0.001,0.906,0.002,1.333,0.003c0.855-0.011,1.653,0.041,2.349-0.021c0.698-0.044,1.317-0.053,1.827-0.067
								c1.021-0.024,1.621-0.004,1.621-0.004s-0.537,0.235-1.504,0.59c-0.484,0.175-1.073,0.396-1.76,0.615
								c-0.68,0.256-1.472,0.422-2.341,0.6c-0.87,0.168-1.811,0.429-2.828,0.512c-1.015,0.097-2.092,0.21-3.211,0.276
								c-1.118-0.014-2.279-0.036-3.458-0.089c-1.171-0.142-2.366-0.278-3.548-0.489c-1.165-0.297-2.358-0.48-3.472-0.894
								c-1.129-0.356-2.224-0.749-3.243-1.234c-1.044-0.42-1.977-0.996-2.877-1.485c-0.881-0.532-1.695-1.061-2.402-1.612
								c-0.354-0.275-0.697-0.528-1.012-0.786c-0.302-0.273-0.589-0.532-0.859-0.776c-0.544-0.474-0.96-0.96-1.314-1.335
								C578.795,221.033,578.481,220.529,578.481,220.529z"/>
						</g>
						<path style="fill:#1F1A21;" d="M624.212,206.577c-0.843,3.461-2.686,5.984-4.117,5.635c-1.431-0.348-1.908-3.437-1.065-6.897
							c0.843-3.461,2.686-5.984,4.117-5.635C624.578,200.028,625.055,203.116,624.212,206.577z"/>
						<path style="fill:#1F1A21;" d="M587.029,195.933c-0.843,3.461-2.686,5.984-4.117,5.635c-1.431-0.349-1.908-3.437-1.065-6.897
							c0.843-3.461,2.686-5.984,4.117-5.635C587.395,189.384,587.872,192.472,587.029,195.933z"/>
					</g>
					<g>
						<path style="fill:#F19C7C;" d="M666.124,209.054c-2.864-6.586-8.677-4.643-13.123-1.781
							c-1.647,8.676-5.752,17.066-11.19,24.177C650.65,237.559,670.692,219.559,666.124,209.054z"/>
						<g>
							<path style="fill:#D86C5D;" d="M650.051,229.193c0.539-0.427,1.067-0.855,1.566-1.296c0.485-0.449,0.986-0.9,1.3-1.375
								c0.078-0.115,0.138-0.231,0.17-0.327c0.033-0.097,0.033-0.165,0.007-0.148c-0.014,0.011-0.022,0.114-0.018,0.121
								c-0.016,0.015-0.068-0.016-0.163-0.041c-0.175-0.06-0.469-0.1-0.743-0.128c-0.291-0.02-0.593-0.046-0.902-0.054l-1.152-0.03
								l0.204-1.298c0.188-1.197,0.377-2.375,0.633-3.549c0.25-1.173,0.525-2.342,0.849-3.502c0.315-1.163,0.68-2.316,1.09-3.467
								c0.423-1.152,0.878-2.29,1.516-3.442c0.339-0.579,0.669-1.15,1.324-1.784c0.071-0.074,0.18-0.16,0.297-0.242
								c0.127-0.084,0.196-0.154,0.379-0.234l0.253-0.106l0.128-0.046l0.064-0.021l0.016-0.005l0.106-0.025l0.014-0.002l0.221-0.029
								c0.233-0.045,0.751-0.066,1.134-0.061c0.719,0.046,1.404,0.186,2.062,0.413c0.656,0.231,1.298,0.528,1.872,0.977
								c0.584,0.417,1.059,1.045,1.395,1.707c0.281,0.699,0.407,1.466,0.246,2.141c-0.032,0.349-0.152,0.66-0.272,0.965
								c-0.105,0.313-0.273,0.585-0.445,0.85c-0.297,0.555-0.756,0.986-1.152,1.433c0.183-0.586,0.435-1.12,0.535-1.69
								c0.072-0.277,0.133-0.551,0.13-0.826c0.028-0.27,0.056-0.534,0.001-0.784l-0.046-0.368l-0.126-0.332
								c-0.052-0.226-0.22-0.396-0.313-0.587c-0.3-0.328-0.615-0.628-1.065-0.81c-0.409-0.215-0.884-0.359-1.368-0.444
								c-0.485-0.093-0.985-0.091-1.45-0.071c-0.208,0.04-0.287,0.014-0.632,0.11l-0.216,0.053l-0.013,0.003
								c-0.024,0.005,0.175-0.04,0.093-0.02l0.003,0l0.013,0.001l0.026-0.001c0.017-0.003,0.034-0.008,0.049-0.017
								c0.04-0.032,0.007,0.016,0.011,0.012c-0.004,0.004-0.013,0.007-0.04,0.046c-0.183,0.209-0.454,0.679-0.674,1.14
								c-0.461,0.951-0.858,2.032-1.245,3.107c-0.388,1.081-0.742,2.189-1.11,3.295l-2.167,6.695l-0.948-1.327
								c0.36,0.071,0.725,0.138,1.094,0.254c0.377,0.13,0.747,0.247,1.166,0.51c0.204,0.128,0.43,0.297,0.634,0.568
								c0.202,0.271,0.346,0.705,0.279,1.056c-0.048,0.354-0.188,0.603-0.332,0.791c-0.144,0.191-0.296,0.34-0.448,0.469
								c-0.612,0.507-1.232,0.826-1.879,1.101C651.375,228.804,650.721,229.027,650.051,229.193z"/>
						</g>
					</g>
				</g>
			</g>
		</g>
	</g>
	<g>
		
			<ellipse transform="matrix(0.2046 -0.9788 0.9788 0.2046 -70.355 627.3133)" style="fill:#EDDFE0;" cx="350.815" cy="356.947" rx="29.434" ry="80.52"/>
		<g>
			<g>
				<g>
					<path style="fill:#352C38;" d="M309.889,327.913c0,0-20.632,19.718-14.032,23.615c6.6,3.897,30.547-13.707,30.547-13.707
						l-15.109-9.64"/>
					<path style="fill:#352C38;" d="M400.904,351.261c0,0,3.718,28.296-3.868,27.196c-7.586-1.1-15.211-29.827-15.211-29.827
						l17.815,1.959"/>
				</g>
				<g>
					<path style="fill:#765E69;" d="M309.327,221.739c0,0-14.25,57.9-3.423,99.881c0,0,4.782,13.412,23.513,16.774
						c0,0,15.224-43.374,21.473-50.929c0,0,4.255,2.959,12.173,6.893c0,0,12.305,43.518,18.464,59.224
						c0,0,14.865,0.852,21.393-1.145c0,0,24.641-84.716,29.652-102.573C437.583,232.008,309.327,221.739,309.327,221.739z"/>
					<g>
						<path style="fill:#604D57;" d="M305.088,244.253c-3.101,20.705-5.738,51.951,0.817,77.367c0,0,4.782,13.412,23.513,16.774
							c0,0,15.154-43.174,21.43-50.874C332.937,276.812,317.591,260.824,305.088,244.253z"/>
					</g>
				</g>
			</g>
			<g>
				<g>
					<path style="fill:#FFAC9D;" d="M466.486,232.904c0,0,42.814-62.1,41.625-81.297c-1.189-19.197-100.999-46.296-100.999-46.296
						l-13.172,24.822l53.232,27.849c0,0-13.986,24.42-34.798,48.481c-20.812,24.061,32.11,46.063,32.11,46.063L466.486,232.904z"/>
					<g>
						<path style="opacity:0.5;fill:#D66363;" d="M458.546,121.77c-25.558-9.431-51.434-16.458-51.434-16.458l-13.172,24.822
							l44.692,23.381C444.978,142.829,452.994,132.881,458.546,121.77z"/>
						<path style="opacity:0.5;fill:#D66363;" d="M479.569,205.784c-7.905-5.721-15.952-11.394-23.53-17.544
							c-6.116-4.964-11.972-10.548-18.767-14.585c-6.082,9.06-14.661,20.975-24.898,32.81c-20.812,24.061,32.11,46.063,32.11,46.063
							l22.001-19.623c0,0,7.502-10.882,16.137-24.942C481.607,207.233,480.582,206.517,479.569,205.784z"/>
					</g>
				</g>
				<g>
					<path style="fill:#6F96BD;" d="M324.049,152.309c0,0-53.199-7.152-57.956,24.235c-4.757,31.386,47.19,86.843,91.383,96.874
						s101.873-2.907,128.632-59.716l-58.067-37.158l-8.001,14.465C420.04,191.009,401.034,167.449,324.049,152.309z"/>
					<path style="fill:#567D9B;" d="M410.079,182.831c-14.226-7.889-46.449-22.739-86.029-30.523c0,0-10.605-1.423-22.767-0.208
						c-7.187,24.651-11.147,60.353,20.393,73.669C372.56,247.25,395.063,227.504,410.079,182.831z"/>
				</g>
			</g>
			<g>
				<g>
					<path style="fill:#FFAC9D;" d="M367.727,82.859l-17.404-4.5c0,0-35.096,75.813-27.596,101.406
						c7.5,25.594,52.5,48.476,84.5-15.215S405.727,78.859,367.727,82.859z"/>
					<g>
						<path style="fill:#352C38;" d="M325.303,146.25c0,0-4.576,15.977-14.576,30.293c-10,14.316-2,35.107,19,43.962v-6.804l6,9.098
							c0,0,18.19,8.439,35.095,0l-7.095,6.956c0,0,16.5,2.288,26-16.053s29-68.06,34-67.451s9,3.609,6,11.109c0,0,24.5-40,20.5-56.5
							s-22-18.455-22-18.455l3,6.455c0,0,10-15.5-8-29c-18-13.5-44.339-16.5-44.67-36c0,0-10.83,14.5,3.67,24c0,0-17.5-12-15.5-27
							c0,0-9.5,16.5,2,26.5c0,0-12-7.5-6.5-26.5c0,0-29.5,17.5-11.5,53c0,0-10.5-16.5-9-29c0,0-17,22.591,4.5,37.545
							c21.5,14.955,45,19.955,64,17.455c0,0-15.5,21,3.5,33c0,0-22.5,59.799-32,58.15c-9.5-1.65,13-35.65-10.905-35.65
							c-24.409,0-36.595-18-41.595,7.174C323.773,189.99,318.824,167.47,325.303,146.25z"/>
						<path style="fill:#1F1A21;" d="M450.227,100.859c-2.619-10.805-11.242-15.372-16.882-17.238
							c1.451-5.693,1.388-15.133-10.118-23.762c-0.695-0.522-1.407-1.023-2.125-1.514c0.215,1.395,0.394,2.731,0.548,3.94
							c1.375,10.779-2.24,22.102-11.117,28.813c-4.947,3.74-11.358,7.014-17.996,8.961c6.173,0.616,12.126,0.533,17.69-0.199
							c0,0-15.5,21,3.5,33c0,0-22.5,59.799-32,58.15c-3.996-0.694-2.33-7.112-0.838-14.315
							c-9.005,14.574-23.373,26.001-41.382,25.383c-13.153-0.452-24.181-7.401-32.509-17.046
							c-2.866,13.108,5.611,28.256,22.728,35.473v-6.804l6,9.098c0,0,18.19,8.439,35.095,0l-7.095,6.956c0,0,16.5,2.288,26-16.053
							s29-68.06,34-67.451s9,3.609,6,11.109C429.727,157.359,454.227,117.359,450.227,100.859z"/>
					</g>
				</g>
				<g>
					<g>
						<path style="fill:#FFFFFF;" d="M339.227,160.005c0,0,20,5.736,36.5,4.545C375.727,164.55,357.727,182.651,339.227,160.005z"/>
						<g>
							<path style="fill:#352C38;" d="M372.56,116.359c0,0,0.102-0.132,0.316-0.355c0.217-0.215,0.527-0.557,0.965-0.918
								c0.434-0.37,0.969-0.822,1.625-1.271c0.655-0.453,1.42-0.929,2.296-1.384c0.876-0.453,1.861-0.893,2.953-1.26
								c1.085-0.382,2.29-0.665,3.57-0.863c1.287-0.173,2.662-0.242,4.083-0.104c1.421,0.156,2.885,0.461,4.287,1.053
								c1.383,0.602,2.732,1.382,3.823,2.403c0.273,0.253,0.568,0.483,0.812,0.756l0.71,0.826c0.485,0.536,0.83,1.143,1.208,1.713
								c0.345,0.586,0.628,1.179,0.9,1.759c0.244,0.589,0.438,1.171,0.626,1.736c0.189,0.565,0.281,1.127,0.402,1.662
								c0.117,0.537,0.198,1.053,0.231,1.554c0.039,0.496,0.076,0.971,0.111,1.423c-0.004,0.453-0.008,0.879-0.027,1.279
								c-0.016,0.797-0.1,1.488-0.201,2.055c-0.076,0.564-0.191,1.007-0.246,1.305c-0.072,0.298-0.11,0.458-0.11,0.458
								s-0.081-0.145-0.232-0.417c-0.135-0.273-0.367-0.665-0.592-1.166c-0.22-0.503-0.546-1.094-0.888-1.758
								c-0.164-0.331-0.338-0.682-0.521-1.053c-0.197-0.355-0.405-0.728-0.622-1.117c-0.2-0.391-0.414-0.788-0.676-1.17
								c-0.256-0.383-0.453-0.814-0.745-1.189c-0.288-0.377-0.53-0.791-0.827-1.167c-0.325-0.351-0.587-0.757-0.917-1.103
								c-0.657-0.688-1.329-1.356-2.09-1.886c-0.743-0.558-1.558-1.004-2.429-1.36c-0.852-0.402-1.813-0.608-2.773-0.835
								c-0.977-0.18-1.988-0.29-3.001-0.357c-1.015-0.031-2.028-0.067-3.01-0.017c-0.982,0.025-1.932,0.088-2.821,0.16
								c-1.778,0.146-3.324,0.307-4.426,0.423C373.224,116.295,372.56,116.359,372.56,116.359z"/>
						</g>
						<g>
							<path style="fill:#352C38;" d="M364.367,114.692c0,0-0.07-0.132-0.202-0.38c-0.116-0.247-0.333-0.6-0.549-1.045
								c-0.476-0.883-1.138-2.117-1.952-3.456c-0.818-1.334-1.828-2.766-2.989-3.862c-0.591-0.535-1.209-0.961-1.838-1.295
								c-0.629-0.337-1.306-0.523-2.038-0.638c-0.718-0.169-1.55-0.097-2.39-0.08c-0.426,0.048-0.864,0.122-1.301,0.153
								c-0.443,0.094-0.882,0.192-1.329,0.257c-0.885,0.232-1.776,0.421-2.627,0.695c-0.864,0.215-1.677,0.52-2.46,0.741
								c-0.784,0.226-1.494,0.493-2.157,0.677c-0.667,0.199-1.248,0.372-1.727,0.514c-0.477,0.154-0.888,0.234-1.155,0.308
								c-0.277,0.061-0.425,0.093-0.425,0.093s0.076-0.129,0.22-0.37c0.154-0.229,0.36-0.593,0.667-1.003
								c0.306-0.413,0.653-0.952,1.137-1.474c0.479-0.529,1.01-1.145,1.667-1.738c0.666-0.582,1.377-1.236,2.244-1.806
								c0.834-0.607,1.81-1.147,2.857-1.661c0.543-0.238,1.111-0.45,1.687-0.669c0.608-0.175,1.221-0.357,1.868-0.479
								c1.313-0.219,2.715-0.335,4.178-0.082c1.434,0.256,2.91,0.749,4.113,1.6c1.22,0.811,2.199,1.847,2.927,2.91
								c1.432,2.156,1.969,4.339,2.167,6.15c0.188,1.822,0.029,3.316-0.168,4.344c-0.082,0.513-0.211,0.914-0.284,1.183
								C364.428,114.552,364.367,114.692,364.367,114.692z"/>
						</g>
						<path style="fill:#1F1A21;" d="M352.747,125.276c-1.484,3.238-3.772,5.366-5.111,4.753c-1.339-0.613-1.222-3.736,0.262-6.974
							c1.484-3.238,3.772-5.366,5.111-4.753C354.348,118.916,354.231,122.038,352.747,125.276z"/>
						<path style="fill:#1F1A21;" d="M389.151,137.265c-1.484,3.238-3.772,5.366-5.111,4.753c-1.339-0.613-1.222-3.736,0.262-6.974
							c1.484-3.238,3.772-5.366,5.111-4.753C390.752,130.904,390.635,134.027,389.151,137.265z"/>
						<g>
							<path style="fill:#D66363;" d="M364.893,116.359c-0.552,0.493-1.026,1.06-1.54,1.554c-0.476,0.554-0.951,1.101-1.437,1.629
								c-0.496,0.516-0.897,1.136-1.367,1.675c-0.452,0.559-0.916,1.103-1.354,1.669c-0.835,1.175-1.703,2.312-2.548,3.462
								c-0.424,0.574-0.806,1.186-1.21,1.775l-1.196,1.783c-0.385,0.603-0.83,1.163-1.211,1.769l-1.116,1.838
								c-0.735,1.231-1.507,2.438-2.274,3.648c-0.387,0.604-0.71,1.248-1.069,1.87c-0.346,0.629-0.719,1.245-1.078,1.868
								c-0.729,1.241-1.433,2.496-2.205,3.72l-0.472-1.55c0.83,0.549,1.667,1.085,2.49,1.645l2.46,1.698
								c1.617,1.172,3.242,2.33,4.794,3.614c-1.892-0.693-3.712-1.511-5.539-2.317l-2.707-1.267
								c-0.899-0.428-1.784-0.881-2.676-1.321l-0.955-0.47l0.483-1.08c0.599-1.34,1.265-2.65,1.906-3.973
								c0.327-0.659,0.639-1.326,0.978-1.978c0.344-0.65,0.649-1.321,1.027-1.954c0.772-1.256,1.54-2.515,2.345-3.751l1.194-1.861
								c0.414-0.61,0.865-1.199,1.32-1.781l1.365-1.748c0.466-0.574,0.884-1.181,1.388-1.726c1.024-1.076,2.026-2.166,3.06-3.218
								c0.544-0.504,1.114-0.985,1.667-1.475c0.563-0.482,1.105-0.978,1.717-1.406c0.598-0.44,1.208-0.862,1.815-1.277
								C363.597,117.047,364.217,116.647,364.893,116.359z"/>
						</g>
					</g>
					<g>
						<path style="fill:#FFAC9D;" d="M410.719,168.219c0,0,9.321-27.527,18.22-24.172c6.861,2.586,6.287,39.796-22.18,32.583
							L410.719,168.219z"/>
						<g>
							<path style="fill:#D66363;" d="M415.56,174.707c0.788-0.286,1.549-0.65,2.217-1.1c0.328-0.229,0.63-0.491,0.837-0.779
								c0.2-0.294,0.279-0.591,0.196-0.865c-0.166-0.564-0.796-1.091-1.445-1.503c-0.66-0.421-1.392-0.767-2.126-1.107l-0.592-0.275
								l0.247-0.651c0.531-1.401,1.07-2.783,1.675-4.145c0.6-1.362,1.201-2.728,1.881-4.058c0.336-0.667,0.679-1.332,1.034-1.992
								c0.36-0.658,0.711-1.322,1.109-1.964c0.788-1.289,1.616-2.56,2.666-3.76c0.552-0.584,1.097-1.189,2.098-1.602
								c0.236-0.108,0.566-0.154,0.89-0.162c0.169,0.015,0.349,0.057,0.518,0.102l0.063,0.018l0.031,0.009l0.016,0.005
								c0.044,0.02-0.078-0.038,0.104,0.047l0.06,0.034l0.121,0.069c0.044,0.027,0.071,0.037,0.129,0.077l0.199,0.155
								c0.128,0.106,0.267,0.229,0.332,0.326c0.176,0.207,0.305,0.42,0.41,0.635c0.413,0.863,0.474,1.682,0.526,2.471
								c0.034,0.79,0,1.558-0.073,2.316c-0.167,1.513-0.439,2.988-0.808,4.437c-0.354,1.45-0.796,2.876-1.317,4.27
								c0.387-2.943,0.771-5.886,0.778-8.775c0-0.719-0.021-1.433-0.111-2.117c-0.087-0.674-0.247-1.353-0.509-1.814
								c-0.064-0.115-0.132-0.213-0.204-0.284c-0.039-0.058-0.053-0.043-0.063-0.059c-0.005-0.007-0.009-0.015-0.011-0.026
								c-0.016-0.014-0.075-0.04-0.111-0.059l-0.124-0.063l-0.062-0.031c0.176,0.082,0.048,0.023,0.087,0.042l-0.001,0.001
								l-0.002,0.002l-0.004,0.004c-0.012,0.011-0.013,0.003-0.025-0.004c-0.045,0.029-0.085,0.009-0.186,0.069
								c-0.375,0.158-0.887,0.664-1.31,1.173c-0.884,1.042-1.666,2.269-2.397,3.514c-0.737,1.247-1.457,2.519-2.131,3.818
								c-0.668,1.303-1.36,2.598-2.008,3.917l-1.937,3.96l-0.345-0.925c0.756,0.416,1.494,0.879,2.187,1.442
								c0.349,0.272,0.677,0.599,0.982,0.954c0.293,0.37,0.562,0.819,0.628,1.371c0.025,0.273-0.006,0.562-0.113,0.811
								c-0.093,0.258-0.257,0.457-0.417,0.639c-0.336,0.352-0.733,0.572-1.128,0.758
								C417.226,174.401,416.393,174.593,415.56,174.707z"/>
						</g>
					</g>
				</g>
			</g>
		</g>
	</g>
	<g>
		
			<ellipse transform="matrix(0.9822 -0.188 0.188 0.9822 -73.5368 42.6983)" style="fill:#EDDFE0;" cx="188.302" cy="408.974" rx="80.52" ry="27.028"/>
		<g>
			<g>
				<g>
					<g>
						<g>
							<path style="fill:#FFFFFF;" d="M162.477,402.009c0,0,0.851,24.473-5.298,24.311c-6.149-0.162-8.414-26.052-8.414-26.052
								L162.477,402.009z"/>
							<path style="fill:#352C38;" d="M162.083,414.738c0.617-6.263,0.394-12.729,0.394-12.729l-13.712-1.741
								c0,0,0.67,7.632,2.265,14.635C154.771,413.988,158.466,413.992,162.083,414.738z"/>
						</g>
						<g>
							<path style="fill:none;stroke:#FFFFFF;stroke-linecap:round;stroke-miterlimit:10;" d="M151.936,412.081
								c0,0,2.816-2.913,8.803,0"/>
							<path style="fill:none;stroke:#FFFFFF;stroke-linecap:round;stroke-miterlimit:10;" d="M151.936,409.664
								c0,0,2.816-2.913,8.803,0"/>
							<path style="fill:none;stroke:#FFFFFF;stroke-linecap:round;stroke-miterlimit:10;" d="M151.936,407.586
								c0,0,2.816-2.913,8.803,0"/>
						</g>
					</g>
					<g>
						<g>
							<path style="fill:#FFFFFF;" d="M209.657,386.288c0,0,14.361,19.834,19.113,15.93c4.753-3.905-9.363-25.726-9.363-25.726
								L209.657,386.288z"/>
							<path style="fill:#352C38;" d="M217.787,396.09c-4.334-4.563-8.13-9.802-8.13-9.802l9.751-9.797c0,0,4.159,6.434,7.202,12.94
								C223.096,391.007,220.183,393.28,217.787,396.09z"/>
						</g>
						<g>
							<path style="fill:none;stroke:#FFFFFF;stroke-linecap:round;stroke-miterlimit:10;" d="M224.162,387.76
								c0,0-4.012-0.568-6.947,5.408"/>
							<path style="fill:none;stroke:#FFFFFF;stroke-linecap:round;stroke-miterlimit:10;" d="M222.677,385.853
								c0,0-4.012-0.568-6.947,5.408"/>
							<path style="fill:none;stroke:#FFFFFF;stroke-linecap:round;stroke-miterlimit:10;" d="M221.401,384.214
								c0,0-4.012-0.568-6.947,5.408"/>
						</g>
					</g>
				</g>
				<g>
					<path style="fill:#6F96BD;" d="M89.87,331.174c0,0,0.917,41.502,60.262,73.502c0,0,7.345,2,12.345-2.667l4.327-66.667
						l-16.672,13.474c0,0,37.345,31.859,60.012,37.859c0,0,10.816-2.706,10.681-7.904c-0.135-5.198-1.122-45.008-22.015-71.192
						C176.549,279.681,89.87,331.174,89.87,331.174z"/>
					<path style="fill:#567D9B;" d="M198.81,307.58c-19.696-23.957-87.408,11.53-104.821,21.244l-3.988,3.984
						c0.335,3.014,1.525,9.984,5.71,19.022c14.869,7.982,39.724,16.863,69.377,9.943l0.067-1.035
						c0.336,0.252,0.691,0.514,1.034,0.77c14.923-3.666,31.033-11.365,47.68-25.188C210.611,326.312,205.829,316.117,198.81,307.58z
						"/>
				</g>
			</g>
			<g>
				<g>
					<path style="fill:#DD744B;" d="M89.521,322c-9.838-2.416-19.605-4.687-26.98-12.374c-1.703-1.775-3.244-3.639-4.703-5.559
						c-2.43,18.212,19.371,36.52,46.09,44.749C97.851,340.66,93.932,331.195,89.521,322z"/>
					<path style="fill:#DD744B;" d="M220.477,274.676c-1.446-12.289-4.03-17.74-9.575-21.227c0.351,6.215,0.529,12.507-0.912,18.51
						c-0.662,2.759-1.669,5.289-2.867,7.707c4.044,8.999,5.789,18.416,5.835,27.913
						C219.301,297.198,221.824,286.128,220.477,274.676z"/>
				</g>
				<g>
					<path style="fill:#FFA65B;" d="M101.144,252.676c0,0-37.616,35.143-42,46.333c-12.667,32.333,57.667,68,101,49
						c43.333-19,63.667-45,60.333-73.333c-3.333-28.333-12.694-20.333-50.514-35.667S101.144,252.676,101.144,252.676z"/>
					<g>
						<path style="fill:#DD744B;" d="M181.341,243.263c-3.479-1.196-7.249-2.58-11.378-4.254
							c-37.819-15.333-68.819,13.667-68.819,13.667s-7.724,7.429-12.296,11.871c15.758,17.746,42.924,24.09,60.838,21.288
							C167.412,283.062,178.327,265.077,181.341,243.263z"/>
						<path style="fill:#FFA65B;" d="M84.665,314.009c0,0,7.052,45.904,42.96,46c22.628,0.061,42.339-16.622,42.339-16.622
							s35.846-8.044,44.013-29.378c8.167-21.333-13.166-53.605-13.166-53.605l-48.696,49.833L84.665,314.009z"/>
					</g>
				</g>
			</g>
			<g>
				<g>
					<g>
						<path style="fill:#965450;" d="M97.977,170.009c0,0,44-28,70,6s18.275,96.273-15,101.478
							C114.477,283.509,52.977,222.509,97.977,170.009z"/>
						<path style="fill:#965450;" d="M93.977,230.509c0,0-14-14.5-19-3s19.5,32,26.5,20S93.977,230.509,93.977,230.509z"/>
					</g>
					<g>
						<g>
							<path style="fill:#FDDEC0;" d="M93.81,189.009c0,0,16.667,22.667,45.333,13c0,0-19-5-27.667-13c0,0,26.667,16.399,51,7.7
								c0,0-7.138-20.97-33-25.366c0,0,52.667,7,58,75.333c0,0,15.667-50-12-75.333c0,0,15.667,12,19,28.333
								c0,0,1.333-39.333-44.667-58.333S66.81,157.343,93.81,189.009z"/>
							<path style="fill:#FDDEC0;" d="M88.848,171.676c0,0-22.206-6.333-30.872,23.333c-8.667,29.667,18.02,42.106,18.02,42.106
								s-3.795-12.308,6.177-14.04c0,0-1.362,35.268,33.638,51.601c0,0-23.333-19.667-25.333-53.667
								C90.477,221.009,113.885,193.343,88.848,171.676z"/>
						</g>
						<g>
							<path style="fill:#F4D3AB;" d="M153.093,182.959c-0.808,2.618-1.851,5.111-3.175,7.352c-2.11,3.571-4.924,6.383-8.166,8.674
								c6.65,0.641,13.781,0.206,20.725-2.276C162.477,196.709,160.086,189.715,153.093,182.959z"/>
							<path style="fill:#F4D3AB;" d="M194.477,199.676c0,0,1.333-39.333-44.667-58.333c-1.465-0.605-2.92-1.154-4.365-1.651
								c4.725,7.161,8.975,14.687,9.665,23.45c0.449,5.706,0.04,12.212-1.551,18.191c14.643,9.763,31.062,28.762,33.917,65.343
								c0,0,15.667-50-12-75.333C175.477,171.343,191.144,183.343,194.477,199.676z"/>
							<path style="fill:#F4D3AB;" d="M90.477,221.009c0,0,4.562-5.396,7.504-13.285c-14.098-1.934-27.73-7.888-38.528-17.069
								c-0.524,1.364-1.023,2.798-1.477,4.354c-8.667,29.667,18.02,42.105,18.02,42.105s-3.795-12.308,6.177-14.04
								c0,0-1.362,35.268,33.638,51.601C115.81,274.676,92.477,255.009,90.477,221.009z"/>
						</g>
					</g>
				</g>
				<g>
					<path style="fill:#FFFFFF;" d="M133.44,251.601c0,0,27.122-2.365,38.171-15.748
						C171.611,235.854,167.258,258.298,133.44,251.601z"/>
					<g>
						<path style="fill:#5E3430;" d="M147.445,216.443l1.536,1.938c0.502,0.639,1.019,1.259,1.527,1.874
							c0.513,0.613,1.044,1.201,1.565,1.786c0.529,0.579,1.064,1.142,1.617,1.675c0.549,0.534,1.112,1.05,1.694,1.516
							c0.295,0.227,0.58,0.472,0.879,0.686l0.908,0.613c0.302,0.206,0.629,0.342,0.938,0.526c0.158,0.082,0.311,0.181,0.472,0.252
							l0.49,0.188c0.327,0.117,0.642,0.307,0.984,0.355c0.337,0.075,0.67,0.172,1.008,0.263l2.39,0.644l-1.475,1.628
							c-1.191,1.314-2.416,2.601-3.714,3.828c-0.645,0.617-1.299,1.226-1.982,1.812c-0.675,0.592-1.376,1.164-2.112,1.706
							c0.385-0.83,0.805-1.63,1.251-2.409c0.438-0.786,0.905-1.548,1.381-2.303c0.944-1.516,1.961-2.973,3.012-4.402l0.915,2.271
							c-0.458-0.071-0.921-0.137-1.381-0.225c-0.471-0.057-0.888-0.255-1.332-0.391c-0.444-0.142-0.871-0.316-1.264-0.541
							c-0.397-0.218-0.825-0.401-1.189-0.663l-1.098-0.773c-0.351-0.273-0.666-0.579-0.999-0.868
							c-0.341-0.282-0.631-0.606-0.924-0.927c-0.29-0.323-0.601-0.628-0.851-0.978c-0.26-0.342-0.53-0.676-0.78-1.022l-0.701-1.067
							c-0.437-0.727-0.849-1.464-1.195-2.232c-0.373-0.752-0.672-1.538-0.946-2.328c-0.147-0.389-0.243-0.803-0.363-1.201
							C147.602,217.269,147.509,216.858,147.445,216.443z"/>
					</g>
					<g>
						<path style="fill:#352C38;" d="M157.382,221.659c0,0-0.228-0.342-0.551-0.987c-0.16-0.323-0.344-0.721-0.525-1.191
							c-0.18-0.471-0.367-1.012-0.52-1.622c-0.067-0.309-0.137-0.631-0.21-0.964c-0.059-0.339-0.083-0.697-0.126-1.064
							c-0.009-0.373-0.022-0.759-0.009-1.159c0.053-0.404,0.062-0.817,0.197-1.237c0.113-0.423,0.237-0.853,0.478-1.266
							c0.179-0.438,0.513-0.804,0.843-1.171c0.342-0.346,0.774-0.617,1.185-0.877l0.668-0.279l0.337-0.135l0.085-0.033l0.021-0.008
							c0.046-0.011-0.089,0.019,0.107-0.026l0.009-0.002l0.037-0.007l0.148-0.029l0.596-0.098l0.298-0.048l0.386,0.001
							c0.518,0.001,1.036,0.019,1.471,0.152c0.225,0.057,0.457,0.097,0.672,0.172l0.617,0.277c0.422,0.164,0.758,0.434,1.119,0.654
							c0.352,0.232,0.647,0.509,0.948,0.769c0.281,0.276,0.531,0.564,0.784,0.833c0.225,0.288,0.443,0.568,0.655,0.84
							c0.183,0.286,0.361,0.563,0.531,0.829c0.646,1.077,1.024,2.044,1.258,2.724c0.23,0.684,0.309,1.088,0.309,1.088
							s-0.235-0.339-0.661-0.903c-0.215-0.277-0.477-0.613-0.777-0.999c-0.305-0.378-0.667-0.786-1.051-1.227
							c-0.401-0.43-0.852-0.867-1.331-1.309c-0.498-0.42-1.04-0.823-1.618-1.165c-0.584-0.323-1.211-0.594-1.852-0.694
							c-0.332-0.098-0.616-0.072-0.901-0.083l-0.216-0.014l-0.296,0.057l-0.593,0.113l-0.149,0.024l-0.037,0.006l-0.009,0.002
							c0.189-0.043,0.048-0.01,0.089-0.019l-0.014,0.006l-0.056,0.022l-0.224,0.088l-0.453,0.165
							c-0.256,0.167-0.529,0.312-0.745,0.518c-0.418,0.418-0.783,0.925-0.977,1.545c-0.136,0.287-0.15,0.632-0.253,0.936
							c-0.057,0.322-0.092,0.649-0.133,0.966c-0.031,0.645-0.044,1.271-0.021,1.857c0.038,0.584,0.077,1.126,0.128,1.61
							c0.063,0.485,0.118,0.907,0.164,1.255C157.309,221.253,157.382,221.659,157.382,221.659z"/>
					</g>
					<g>
						<path style="fill:#352C38;" d="M117.9,233.91c0,0-0.23-0.392-0.552-1.12c-0.318-0.728-0.735-1.792-1.047-3.137
							c-0.158-0.672-0.301-1.414-0.359-2.22c-0.063-0.804-0.083-1.677,0.075-2.591c0.148-0.906,0.451-1.892,1.08-2.76
							c0.616-0.876,1.58-1.547,2.583-1.897l0.094-0.035l0.024-0.008l0.129-0.033l0.041-0.008l0.165-0.031l0.329-0.061
							c0.232-0.034,0.409-0.097,0.686-0.107c0.565,0.018,1.205-0.035,1.681,0.139l0.755,0.201l0.676,0.333
							c0.464,0.202,0.821,0.516,1.206,0.783c0.371,0.282,0.68,0.604,0.995,0.908c0.274,0.331,0.542,0.655,0.803,0.97
							c0.229,0.333,0.463,0.648,0.663,0.967c0.185,0.326,0.364,0.641,0.535,0.944c0.324,0.611,0.578,1.189,0.782,1.707
							c0.206,0.517,0.357,0.977,0.471,1.359c0.227,0.763,0.304,1.212,0.304,1.212s-0.236-0.389-0.665-1.045
							c-0.217-0.323-0.482-0.715-0.785-1.164c-0.31-0.442-0.676-0.924-1.071-1.444c-0.41-0.509-0.874-1.034-1.371-1.566
							c-0.263-0.245-0.534-0.496-0.811-0.753c-0.305-0.208-0.575-0.482-0.893-0.675c-0.321-0.18-0.626-0.419-0.974-0.526
							l-0.506-0.207l-0.519-0.116c-0.176-0.053-0.346-0.084-0.493-0.066c-0.153,0-0.305-0.008-0.459-0.022
							c-0.166-0.005-0.421,0.079-0.628,0.114l-0.327,0.07l-0.164,0.035l-0.041,0.009l-0.01,0.002
							c-0.1,0.025,0.124-0.032,0.098-0.025l-0.016,0.006l-0.062,0.024c-0.682,0.226-1.263,0.604-1.68,1.158
							c-0.408,0.554-0.739,1.223-0.906,1.958c-0.36,1.465-0.357,2.997-0.305,4.298c0.069,1.308,0.196,2.415,0.296,3.192
							C117.828,233.461,117.9,233.91,117.9,233.91z"/>
					</g>
					<g>
						<path style="fill:#352C38;" d="M147.051,207.193c0,0-0.056-0.548,0.033-1.487c0.081-0.941,0.311-2.275,0.869-3.813
							c0.573-1.525,1.458-3.283,2.911-4.901c0.712-0.815,1.573-1.59,2.573-2.238c0.978-0.68,2.13-1.177,3.315-1.537
							c1.197-0.346,2.447-0.467,3.649-0.436c1.201,0.046,2.347,0.275,3.387,0.607c0.508,0.195,1.025,0.341,1.485,0.572
							c0.458,0.232,0.908,0.446,1.33,0.678c0.808,0.518,1.561,1,2.171,1.546c0.635,0.513,1.158,1.038,1.596,1.527
							c0.453,0.469,0.8,0.925,1.072,1.31c0.554,0.758,0.821,1.228,0.821,1.228s-0.543-0.131-1.406-0.423
							c-0.424-0.158-0.954-0.316-1.545-0.497c-0.583-0.196-1.23-0.414-1.935-0.605c-0.688-0.237-1.448-0.391-2.21-0.605
							c-0.391-0.067-0.779-0.154-1.176-0.234c-0.398-0.071-0.795-0.113-1.196-0.175c-0.402-0.05-0.8-0.052-1.2-0.094
							c-0.391,0.005-0.788,0.01-1.187,0.015c-0.778,0.082-1.554,0.152-2.291,0.394c-0.745,0.207-1.474,0.492-2.176,0.873
							c-0.357,0.171-0.691,0.406-1.043,0.6c-0.331,0.237-0.673,0.452-0.996,0.704c-0.655,0.484-1.272,1.023-1.853,1.563
							c-0.588,0.535-1.12,1.095-1.627,1.616c-0.992,1.06-1.829,2.018-2.426,2.705C147.409,206.778,147.051,207.193,147.051,207.193z
							"/>
					</g>
					<g>
						<path style="fill:#352C38;" d="M135.56,210.187c0,0-0.614-0.272-1.688-0.749c-1.066-0.456-2.575-1.085-4.353-1.722
							c-0.895-0.302-1.85-0.63-2.863-0.891c-1.009-0.265-2.065-0.51-3.142-0.649c-0.539-0.09-1.08-0.109-1.622-0.169
							c-0.541,0.005-1.087-0.038-1.622,0.005c-1.078,0.041-2.137,0.208-3.149,0.525c-1.036,0.247-1.98,0.764-2.935,1.247
							c-0.44,0.318-0.92,0.563-1.352,0.896c-0.42,0.35-0.881,0.631-1.274,1.016c-0.828,0.703-1.578,1.487-2.299,2.245
							c-0.682,0.797-1.368,1.544-1.932,2.308c-0.613,0.729-1.125,1.449-1.597,2.087c-0.487,0.63-0.911,1.192-1.237,1.671
							c-0.676,0.946-1.124,1.481-1.124,1.481s0.035-0.679,0.203-1.857c0.077-0.592,0.187-1.31,0.405-2.109
							c0.194-0.809,0.437-1.719,0.817-2.682c0.332-0.982,0.834-1.996,1.39-3.072c0.614-1.045,1.307-2.144,2.21-3.179
							c0.88-1.047,1.96-2.028,3.179-2.892c1.258-0.811,2.639-1.546,4.142-1.958c0.737-0.249,1.512-0.338,2.267-0.478
							c0.762-0.074,1.526-0.132,2.271-0.092c1.498,0.023,2.931,0.296,4.238,0.696c2.635,0.779,4.767,2.078,6.42,3.326
							c1.646,1.272,2.815,2.529,3.562,3.463C135.226,209.583,135.56,210.187,135.56,210.187z"/>
					</g>
				</g>
			</g>
		</g>
	</g>
</g>
</svg>
